<?xml version="1.0" encoding="UTF-8"?>
<svg id="Layer_1" data-name="Layer 1" xmlns="http://www.w3.org/2000/svg" xmlns:xlink="http://www.w3.org/1999/xlink" viewBox="0 0 1920 1080">
  <defs>
    <style>
      .cls-1 {
        fill: url(#linear-gradient);
      }
    </style>
    <linearGradient id="linear-gradient" x1="960" y1="678.86" x2="960" y2="401.14" gradientUnits="userSpaceOnUse">
      <stop offset="0" stop-color="#037cff"/>
      <stop offset="1" stop-color="#01bfff"/>
    </linearGradient>
  </defs>
  <path class="cls-1" d="m865.16,563.42l-47.42-27.38v-42.83l145.69,84.12,101.71-58.74,37.11,21.43-37.11,21.43-54.29,31.33-47.42,27.38-69.9-40.36-28.37-16.37Zm174.39,28.67l-21.82,12.59-54.29,31.36-145.69-84.11v42.82l98.27,56.75,47.42,27.36,47.42-27.36,91.39-52.78-37.1-21.4-25.6,14.77Zm52.96-105.18l-27.37,15.78-2.12,1.23h-95.78c-3.3,0-5.92,2.82-5.61,6.17.27,2.93,2.9,5.08,5.84,5.08h76.06l-80.1,46.24-138.82-80.15,40.55-23.4,98.26-56.74,47.44,27.38,32.68,18.87h-76.3c-3.3,0-5.92,2.84-5.61,6.18.27,2.93,2.9,5.08,5.84,5.08h95.57l29.44,16.99h-48.54c-3.11,0-5.63,2.52-5.63,5.63s2.52,5.64,5.63,5.64h48.58Zm-141.07-5.64c0-4.16-3.38-7.54-7.54-7.54s-7.55,3.38-7.55,7.54,3.38,7.55,7.55,7.55,7.54-3.38,7.54-7.55Zm75.61,0c0-3.11-2.52-5.63-5.63-5.63h-53.95c-2.94,0-5.57,2.16-5.84,5.08-.31,3.35,2.31,6.18,5.61,6.18h54.18c1.56,0,2.95-.63,3.98-1.65,1.04-1.01,1.65-2.42,1.65-3.99Z"/>
</svg>
